# xmcd
#
# Track frame offsets:
#	150
#	32986
#	56209
#	77815
#	106219
#	128845
#	149165
#	178474
#	203171
#	224470
#
# Disc length: 3229 seconds
# Revision: 0
# Processed by: cddbd v1.5.2PL0 Copyright (c) Steve Scherf et al.
# Submitted via: dBpowerAMP V12.0
#
DISCID=a30c9b0a
DTITLE=Various Artist - Solar: The Ultimate 12" Collection
DYEAR=2008
DGENRE=R&B
TTITLE0=Shalamar - A Night To Remember (US Extended Remix)
TTITLE1=The Whispers - Rock Steady
TTITLE2=Dynasty - Love In The Fast Lane
TTITLE3=Midnight Star - Scientific Love
TTITLE4=The Sylvers - Come Back Lover, Come Back
TTITLE5=Collage - Winners and Loser
TTITLE6=Carrie Lucas - Dance with You
TTITLE7=Leroy Hutson - Classy Lady
TTITLE8=Lakeside - One Minute After Midnight
TTITLE9=Bill Wolfer - Call Me
EXTD=
EXTT0=
EXTT1=
EXTT2=
EXTT3=
EXTT4=
EXTT5=
EXTT6=
EXTT7=
EXTT8=
EXTT9=
PLAYORDER=
